<svg width="462" height="289" viewBox="0 0 462 289" fill="none" xmlns="http://www.w3.org/2000/svg">
<path d="M10.6441 35.1852C10.6441 35.8107 10.167 36.3176 9.57862 36.3176C8.98986 36.3176 8.5127 35.8107 8.5127 35.1852C8.5127 34.5598 8.98986 34.0529 9.57862 34.0529C10.167 34.0529 10.6441 34.5598 10.6441 35.1852Z" fill="#F5F5F5"/>
<path d="M11.0393 22.7368C11.0393 23.3275 10.5888 23.8062 10.033 23.8062C9.47687 23.8062 9.02637 23.3275 9.02637 22.7368C9.02637 22.1461 9.47687 21.6672 10.033 21.6672C10.5888 21.6672 11.0393 22.1461 11.0393 22.7368Z" fill="#F5F5F5"/>
<path d="M145.614 24.6207C145.614 25.3927 145.025 26.0184 144.299 26.0184C143.572 26.0184 142.983 25.3927 142.983 24.6207C142.983 23.8489 143.572 23.2232 144.299 23.2232C145.025 23.2232 145.614 23.8489 145.614 24.6207Z" fill="#F5F5F5"/>
<path d="M144.293 35.6356C144.293 36.3775 143.727 36.9789 143.029 36.9789C142.33 36.9789 141.765 36.3774 141.765 35.6356C141.765 34.8938 142.33 34.2926 143.029 34.2926C143.727 34.2926 144.293 34.8938 144.293 35.6356Z" fill="#F5F5F5"/>
<path d="M107.776 53.5944C107.776 54.2252 107.295 54.7365 106.701 54.7365C106.107 54.7365 105.626 54.2252 105.626 53.5944C105.626 52.9636 106.107 52.4523 106.701 52.4523C107.295 52.4523 107.776 52.9636 107.776 53.5944Z" fill="#F5F5F5"/>
<path d="M65.8625 68.755C65.8625 69.3719 65.3921 69.8717 64.8118 69.8717C64.2312 69.8717 63.7607 69.3719 63.7607 68.755C63.7607 68.1383 64.2312 67.6384 64.8118 67.6384C65.3921 67.6384 65.8625 68.1383 65.8625 68.755Z" fill="#F5F5F5"/>
<path d="M219.77 39.0997C219.77 39.9702 219.106 40.6758 218.287 40.6758C217.468 40.6758 216.804 39.9703 216.804 39.0997C216.804 38.2294 217.468 37.5239 218.287 37.5239C219.106 37.5239 219.77 38.2294 219.77 39.0997Z" fill="#F5F5F5"/>
<path d="M298.549 16.7392C298.549 17.3166 298.108 17.7845 297.565 17.7845C297.022 17.7845 296.581 17.3166 296.581 16.7392C296.581 16.1618 297.022 15.6938 297.565 15.6938C298.108 15.6938 298.549 16.1619 298.549 16.7392Z" fill="#F5F5F5"/>
<path d="M287.17 48.6482C287.595 48.6482 287.938 48.2828 287.938 47.8321C287.938 47.3814 287.595 47.0161 287.17 47.0161C286.746 47.0161 286.402 47.3814 286.402 47.8321C286.402 48.2828 286.746 48.6482 287.17 48.6482Z" fill="#F5F5F5"/>
<path d="M180.817 187.841C180.817 188.563 180.266 189.149 179.586 189.149C178.905 189.149 178.354 188.563 178.354 187.841C178.354 187.118 178.905 186.532 179.586 186.532C180.266 186.532 180.817 187.118 180.817 187.841Z" fill="#F5F5F5"/>
<path d="M111.847 216.403C111.847 216.965 111.418 217.421 110.889 217.421C110.359 217.421 109.93 216.965 109.93 216.403C109.93 215.84 110.359 215.384 110.889 215.384C111.418 215.384 111.847 215.84 111.847 216.403Z" fill="#F5F5F5"/>
<path d="M337.452 209.171C337.452 209.764 337 210.245 336.442 210.245C335.883 210.245 335.431 209.764 335.431 209.171C335.431 208.577 335.883 208.097 336.442 208.097C337 208.097 337.452 208.577 337.452 209.171Z" fill="#F5F5F5"/>
<path d="M444.695 86.8258C444.695 87.5132 444.17 88.0702 443.524 88.0702C442.877 88.0702 442.353 87.5132 442.353 86.8258C442.353 86.1386 442.877 85.5815 443.524 85.5815C444.17 85.5814 444.695 86.1386 444.695 86.8258Z" fill="#F5F5F5"/>
<path d="M437.638 64.4234C437.638 65.1515 437.083 65.7416 436.398 65.7416C435.713 65.7416 435.157 65.1515 435.157 64.4234C435.157 63.6955 435.713 63.1054 436.398 63.1054C437.083 63.1054 437.638 63.6955 437.638 64.4234Z" fill="#F5F5F5"/>
<path d="M404.838 204.839C404.838 205.603 404.255 206.223 403.536 206.223C402.816 206.223 402.233 205.603 402.233 204.839C402.233 204.075 402.816 203.455 403.536 203.455C404.255 203.455 404.838 204.075 404.838 204.839Z" fill="#F5F5F5"/>
<path d="M284.536 263.722C284.536 264.392 284.025 264.934 283.396 264.934C282.766 264.934 282.255 264.392 282.255 263.722C282.255 263.053 282.766 262.51 283.396 262.51C284.025 262.51 284.536 263.053 284.536 263.722Z" fill="#F5F5F5"/>
<path d="M278.832 269.773C278.832 270.529 278.255 271.142 277.543 271.142C276.831 271.142 276.254 270.529 276.254 269.773C276.254 269.016 276.831 268.403 277.543 268.403C278.255 268.403 278.832 269.016 278.832 269.773Z" fill="#F5F5F5"/>
<path d="M420.901 234.803C420.901 235.603 420.291 236.251 419.538 236.251C418.785 236.251 418.175 235.603 418.175 234.803C418.175 234.003 418.785 233.354 419.538 233.354C420.291 233.354 420.901 234.003 420.901 234.803Z" fill="#F5F5F5"/>
<path d="M437.251 225.331C437.251 226.266 436.537 227.025 435.657 227.025C434.776 227.025 434.062 226.266 434.062 225.331C434.062 224.395 434.776 223.636 435.657 223.636C436.537 223.636 437.251 224.395 437.251 225.331Z" fill="#F5F5F5"/>
<path d="M434.693 257.703C434.693 258.61 434.001 259.345 433.148 259.345C432.293 259.345 431.602 258.61 431.602 257.703C431.602 256.796 432.293 256.06 433.148 256.06C434.001 256.06 434.693 256.796 434.693 257.703Z" fill="#F5F5F5"/>
<path d="M394.021 262.823C394.021 263.49 393.512 264.03 392.885 264.03C392.257 264.03 391.748 263.49 391.748 262.823C391.748 262.156 392.257 261.615 392.885 261.615C393.512 261.615 394.021 262.156 394.021 262.823Z" fill="#F5F5F5"/>
<path d="M451.638 240.537C451.638 241.447 450.943 242.186 450.087 242.186C449.229 242.186 448.534 241.447 448.534 240.537C448.534 239.626 449.229 238.888 450.087 238.888C450.943 238.888 451.638 239.626 451.638 240.537Z" fill="#F5F5F5"/>
<path d="M427.991 202.032C427.991 203.043 427.22 203.862 426.269 203.862C425.318 203.862 424.547 203.043 424.547 202.032C424.547 201.021 425.318 200.203 426.269 200.203C427.22 200.203 427.991 201.021 427.991 202.032Z" fill="#F5F5F5"/>
<path d="M412.692 109.573C412.692 110.329 412.116 110.941 411.405 110.941C410.693 110.941 410.117 110.329 410.117 109.573C410.117 108.817 410.693 108.205 411.405 108.205C412.116 108.205 412.692 108.817 412.692 109.573Z" fill="#F5F5F5"/>
<path d="M406.633 51.2097C406.633 51.923 406.089 52.5011 405.418 52.5011C404.746 52.5011 404.202 51.923 404.202 51.2097C404.202 50.4964 404.746 49.9183 405.418 49.9183C406.089 49.9183 406.633 50.4964 406.633 51.2097Z" fill="#F5F5F5"/>
<path d="M399.21 73.0166C399.21 73.7627 398.641 74.3672 397.939 74.3672C397.237 74.3672 396.668 73.7627 396.668 73.0166C396.668 72.2707 397.237 71.6661 397.939 71.6661C398.641 71.6661 399.21 72.2707 399.21 73.0166Z" fill="#F5F5F5"/>
<path d="M315.532 102.325C315.532 103.024 314.999 103.591 314.341 103.591C313.683 103.591 313.149 103.024 313.149 102.325C313.149 101.625 313.683 101.059 314.341 101.059C314.999 101.059 315.532 101.625 315.532 102.325Z" fill="#F5F5F5"/>
<path d="M320.46 91.9206C320.46 92.5701 319.965 93.0965 319.354 93.0965C318.743 93.0965 318.247 92.5701 318.247 91.9206C318.247 91.2713 318.743 90.7448 319.354 90.7448C319.965 90.7448 320.46 91.2713 320.46 91.9206Z" fill="#F5F5F5"/>
<path d="M337.393 49.2344C337.393 50.0477 336.773 50.7067 336.008 50.7067C335.242 50.7067 334.622 50.0477 334.622 49.2344C334.622 48.4214 335.242 47.7622 336.008 47.7622C336.773 47.7622 337.393 48.4214 337.393 49.2344Z" fill="#F5F5F5"/>
<path d="M255.02 27.5922C255.02 28.3827 254.417 29.0234 253.673 29.0234C252.929 29.0234 252.326 28.3827 252.326 27.5922C252.326 26.8017 252.929 26.161 253.673 26.161C254.417 26.161 255.02 26.8017 255.02 27.5922Z" fill="#F5F5F5"/>
<path d="M388.047 243.12C388.047 243.708 387.599 244.184 387.045 244.184C386.492 244.184 386.044 243.708 386.044 243.12C386.044 242.532 386.492 242.056 387.045 242.056C387.599 242.056 388.047 242.532 388.047 243.12Z" fill="#F5F5F5"/>
<path d="M345.603 245.814C345.603 246.642 344.972 247.313 344.193 247.313C343.414 247.313 342.782 246.642 342.782 245.814C342.782 244.986 343.414 244.315 344.193 244.315C344.972 244.315 345.603 244.986 345.603 245.814Z" fill="#F5F5F5"/>
<path d="M140.362 225.915C140.362 226.491 139.923 226.958 139.381 226.958C138.839 226.958 138.399 226.491 138.399 225.915C138.399 225.339 138.839 224.873 139.381 224.873C139.923 224.873 140.362 225.339 140.362 225.915Z" fill="#F5F5F5"/>
<path d="M170.929 234.526C170.929 235.073 170.512 235.516 169.998 235.516C169.483 235.516 169.066 235.073 169.066 234.526C169.066 233.979 169.483 233.536 169.998 233.536C170.512 233.536 170.929 233.979 170.929 234.526Z" fill="#F5F5F5"/>
<path d="M158.686 253.983C158.686 254.61 158.207 255.118 157.618 255.118C157.027 255.118 156.549 254.61 156.549 253.983C156.549 253.356 157.027 252.848 157.618 252.848C158.207 252.848 158.686 253.356 158.686 253.983Z" fill="#F5F5F5"/>
<path d="M96.6742 263.075C96.6742 263.647 96.2382 264.11 95.7006 264.11C95.1626 264.11 94.7266 263.647 94.7266 263.075C94.7266 262.504 95.1626 262.041 95.7006 262.041C96.2382 262.041 96.6742 262.504 96.6742 263.075Z" fill="#F5F5F5"/>
<path d="M77.4142 229.557C77.4142 230.075 77.0187 230.496 76.531 230.496C76.043 230.496 75.6475 230.075 75.6475 229.557C75.6475 229.038 76.043 228.618 76.531 228.618C77.0187 228.618 77.4142 229.038 77.4142 229.557Z" fill="#F5F5F5"/>
<path d="M56.0777 244.691C56.0777 245.341 55.5825 245.867 54.9716 245.867C54.3603 245.867 53.8652 245.341 53.8652 244.691C53.8652 244.042 54.3604 243.516 54.9716 243.516C55.5825 243.516 56.0777 244.042 56.0777 244.691Z" fill="#F5F5F5"/>
<path d="M34.8566 249.632C34.8566 250.407 34.2653 251.036 33.5359 251.036C32.806 251.036 32.2148 250.407 32.2148 249.632C32.2148 248.857 32.806 248.228 33.5359 248.228C34.2654 248.228 34.8566 248.857 34.8566 249.632Z" fill="#F5F5F5"/>
<path d="M29.4977 215.955C29.4977 216.694 28.934 217.293 28.2388 217.293C27.5432 217.293 26.9795 216.694 26.9795 215.955C26.9795 215.216 27.5432 214.617 28.2388 214.617C28.934 214.617 29.4977 215.216 29.4977 215.955Z" fill="#F5F5F5"/>
<path d="M56.8664 123.622C56.8664 124.336 56.3212 124.916 55.6487 124.916C54.9758 124.916 54.4307 124.337 54.4307 123.622C54.4307 122.907 54.9759 122.328 55.6487 122.328C56.3213 122.328 56.8664 122.907 56.8664 123.622Z" fill="#F5F5F5"/>
<path d="M81.8283 63.0208C81.8283 63.5096 81.4556 63.9056 80.9959 63.9056C80.5358 63.9056 80.1631 63.5096 80.1631 63.0208C80.1631 62.5322 80.5358 62.1362 80.9959 62.1362C81.4556 62.1362 81.8283 62.5322 81.8283 63.0208Z" fill="#F5F5F5"/>
<path d="M44.2105 24.7808C44.2105 25.2945 43.8187 25.7108 43.3354 25.7108C42.8517 25.7108 42.46 25.2945 42.46 24.7808C42.46 24.2672 42.8517 23.8506 43.3354 23.8506C43.8187 23.8507 44.2105 24.2672 44.2105 24.7808Z" fill="#F5F5F5"/>
<path d="M193.843 179.932C193.843 180.635 193.307 181.205 192.646 181.205C191.984 181.205 191.448 180.635 191.448 179.932C191.448 179.23 191.984 178.66 192.646 178.66C193.307 178.66 193.843 179.23 193.843 179.932Z" fill="#F5F5F5"/>
<path d="M272.812 52.8725C272.812 53.3785 272.426 53.7887 271.95 53.7887C271.474 53.7887 271.088 53.3785 271.088 52.8725C271.088 52.3665 271.474 51.9565 271.95 51.9565C272.426 51.9565 272.812 52.3665 272.812 52.8725Z" fill="#F5F5F5"/>
<path d="M187.229 37.3509C187.229 38.1042 186.654 38.7146 185.946 38.7146C185.237 38.7146 184.662 38.1042 184.662 37.3509C184.662 36.5978 185.237 35.9872 185.946 35.9872C186.654 35.9872 187.229 36.5978 187.229 37.3509Z" fill="#F5F5F5"/>
<path d="M343.843 267.286C343.843 268.069 343.245 268.704 342.509 268.704C341.771 268.704 341.174 268.069 341.174 267.286C341.174 266.503 341.771 265.868 342.509 265.868C343.245 265.868 343.843 266.503 343.843 267.286Z" fill="#F5F5F5"/>
<path d="M170.577 216.785C170.577 217.468 170.056 218.022 169.413 218.022C168.77 218.022 168.249 217.468 168.249 216.785C168.249 216.102 168.77 215.548 169.413 215.548C170.056 215.548 170.577 216.102 170.577 216.785Z" fill="#F5F5F5"/>
<path d="M117.291 233.355C117.291 233.955 116.834 234.441 116.27 234.441C115.705 234.441 115.248 233.955 115.248 233.355C115.248 232.755 115.705 232.27 116.27 232.27C116.834 232.27 117.291 232.755 117.291 233.355Z" fill="#F5F5F5"/>
<path d="M313.377 260.067C313.377 260.697 312.897 261.208 312.304 261.208C311.711 261.208 311.23 260.697 311.23 260.067C311.23 259.437 311.711 258.926 312.304 258.926C312.897 258.926 313.377 259.437 313.377 260.067Z" fill="#F5F5F5"/>
<path d="M311.396 204.872C311.873 204.872 312.26 204.461 312.26 203.955C312.26 203.448 311.873 203.037 311.396 203.037C310.92 203.037 310.533 203.448 310.533 203.955C310.533 204.461 310.92 204.872 311.396 204.872Z" fill="#F5F5F5"/>
<path d="M348.179 222.641C348.179 222.978 347.923 223.25 347.606 223.25C347.29 223.25 347.033 222.978 347.033 222.641C347.033 222.305 347.29 222.032 347.606 222.032C347.923 222.032 348.179 222.305 348.179 222.641Z" fill="#F5F5F5"/>
<path d="M379.979 208.84C379.979 209.407 379.546 209.867 379.013 209.867C378.479 209.867 378.046 209.407 378.046 208.84C378.046 208.273 378.479 207.813 379.013 207.813C379.546 207.813 379.979 208.273 379.979 208.84Z" fill="#F5F5F5"/>
<path d="M399.354 94.3613C399.354 95.1281 398.769 95.7494 398.048 95.7494C397.326 95.7494 396.741 95.1281 396.741 94.3613C396.741 93.5948 397.326 92.9735 398.048 92.9735C398.769 92.9736 399.354 93.5949 399.354 94.3613Z" fill="#F5F5F5"/>
<path d="M421.766 52.4003C421.766 53.0564 421.266 53.5879 420.649 53.5879C420.032 53.5879 419.531 53.0563 419.531 52.4003C419.531 51.7445 420.032 51.2129 420.649 51.2129C421.266 51.2129 421.766 51.7445 421.766 52.4003Z" fill="#F5F5F5"/>
<path d="M420.83 31.4408C420.83 32.1471 420.292 32.7194 419.627 32.7194C418.962 32.7194 418.424 32.1471 418.424 31.4408C418.424 30.7348 418.962 30.1623 419.627 30.1623C420.292 30.1623 420.83 30.7348 420.83 31.4408Z" fill="#F5F5F5"/>
<path d="M361.414 37.8492C361.414 38.7213 360.748 39.4281 359.928 39.4281C359.107 39.4281 358.441 38.7213 358.441 37.8492C358.441 36.9773 359.107 36.2703 359.928 36.2703C360.748 36.2704 361.414 36.9773 361.414 37.8492Z" fill="#F5F5F5"/>
<path d="M307.841 53.9553C307.841 54.6274 307.328 55.1722 306.696 55.1722C306.064 55.1722 305.551 54.6274 305.551 53.9553C305.551 53.2832 306.064 52.7386 306.696 52.7386C307.328 52.7387 307.841 53.2833 307.841 53.9553Z" fill="#F5F5F5"/>
<path d="M174.211 87.3861C174.211 87.976 173.761 88.454 173.206 88.454C172.651 88.454 172.201 87.976 172.201 87.3861C172.201 86.7964 172.651 86.3184 173.206 86.3184C173.761 86.3184 174.211 86.7964 174.211 87.3861Z" fill="#F5F5F5"/>
<path d="M167.91 81.5479C167.91 82.1087 167.482 82.5633 166.955 82.5633C166.427 82.5633 165.999 82.1087 165.999 81.5479C165.999 80.9873 166.427 80.5327 166.955 80.5327C167.482 80.5327 167.91 80.9873 167.91 81.5479Z" fill="#F5F5F5"/>
<path d="M150.722 63.3404C150.722 63.9562 150.253 64.4552 149.673 64.4552C149.094 64.4552 148.624 63.9562 148.624 63.3404C148.624 62.7248 149.094 62.2256 149.673 62.2256C150.253 62.2256 150.722 62.7248 150.722 63.3404Z" fill="#F5F5F5"/>
<path d="M94.6735 35.9069C94.6735 36.478 94.238 36.9408 93.7007 36.9408C93.1631 36.9408 92.7275 36.478 92.7275 35.9069C92.7275 35.3359 93.1631 34.8732 93.7007 34.8732C94.238 34.8732 94.6735 35.3359 94.6735 35.9069Z" fill="#F5F5F5"/>
<path d="M47.8652 74.9652C47.8652 75.4048 47.5299 75.7612 47.1164 75.7612C46.7026 75.7612 46.3672 75.4048 46.3672 74.9652C46.3672 74.5257 46.7026 74.1694 47.1164 74.1694C47.5299 74.1694 47.8652 74.5257 47.8652 74.9652Z" fill="#F5F5F5"/>
<path d="M28.8661 56.1212C28.8661 56.5941 28.5056 56.9773 28.0607 56.9773C27.6155 56.9773 27.2549 56.5941 27.2549 56.1212C27.2549 55.6485 27.6155 55.2651 28.0607 55.2651C28.5056 55.2651 28.8661 55.6485 28.8661 56.1212Z" fill="#F5F5F5"/>
<path d="M41.6877 100.332C41.6877 100.828 41.3093 101.231 40.8425 101.231C40.3754 101.231 39.9971 100.828 39.9971 100.332C39.9971 99.8361 40.3755 99.434 40.8425 99.434C41.3093 99.4341 41.6877 99.8361 41.6877 100.332Z" fill="#F5F5F5"/>
<path d="M41.9656 202.911C41.9656 203.576 41.4586 204.115 40.8331 204.115C40.2073 204.115 39.7002 203.576 39.7002 202.911C39.7002 202.246 40.2073 201.708 40.8331 201.708C41.4585 201.708 41.9656 202.246 41.9656 202.911Z" fill="#F5F5F5"/>
<path d="M87.3467 242.075C87.3467 242.646 86.9109 243.11 86.3733 243.11C85.8353 243.11 85.3994 242.646 85.3994 242.075C85.3994 241.503 85.8353 241.04 86.3733 241.04C86.9109 241.04 87.3467 241.504 87.3467 242.075Z" fill="#F5F5F5"/>
<path d="M142.161 244.489C142.161 245.133 141.67 245.655 141.064 245.655C140.457 245.655 139.966 245.133 139.966 244.489C139.966 243.844 140.457 243.322 141.064 243.322C141.67 243.322 142.161 243.845 142.161 244.489Z" fill="#F5F5F5"/>
<path d="M193.541 271.903C193.541 272.55 193.048 273.074 192.439 273.074C191.83 273.074 191.337 272.55 191.337 271.903C191.337 271.256 191.83 270.732 192.439 270.732C193.048 270.732 193.541 271.256 193.541 271.903Z" fill="#F5F5F5"/>
<path d="M252.686 265.375C252.686 266.159 252.088 266.794 251.35 266.794C250.612 266.794 250.015 266.159 250.015 265.375C250.015 264.591 250.612 263.956 251.35 263.956C252.088 263.956 252.686 264.591 252.686 265.375Z" fill="#F5F5F5"/>
<path d="M331.346 229.747C331.346 230.544 330.739 231.19 329.989 231.19C329.238 231.19 328.631 230.544 328.631 229.747C328.631 228.95 329.238 228.304 329.989 228.304C330.739 228.304 331.346 228.95 331.346 229.747Z" fill="#F5F5F5"/>
<path d="M165.802 133.801C165.799 133.784 165.792 133.767 165.788 133.751C165.785 133.738 165.782 133.726 165.778 133.713C165.762 133.666 165.742 133.622 165.714 133.581C165.711 133.576 165.706 133.572 165.702 133.566C165.677 133.531 165.646 133.5 165.613 133.472C165.602 133.463 165.592 133.455 165.582 133.447C165.572 133.44 165.564 133.432 165.554 133.425C165.521 133.404 165.485 133.387 165.448 133.374L165.448 133.374L149.896 127.84L140.126 65.069C140.124 65.0516 140.117 65.0355 140.113 65.0186C140.11 65.0061 140.107 64.9936 140.103 64.9814C140.087 64.9343 140.067 64.8898 140.039 64.849C140.036 64.8438 140.031 64.8397 140.027 64.8344C140.002 64.7991 139.971 64.7678 139.938 64.7396C139.927 64.7309 139.917 64.723 139.907 64.715C139.897 64.7082 139.889 64.6997 139.879 64.6935C139.846 64.6726 139.81 64.6556 139.774 64.6426C139.773 64.6425 139.773 64.6423 139.773 64.6421L123.972 59.0191C123.863 58.98 123.744 58.9773 123.633 59.0112L94.4483 67.9018C94.4425 67.9036 94.4381 67.9077 94.4324 67.9096C94.3866 67.9253 94.3425 67.9459 94.3023 67.9732C94.2993 67.9751 94.296 67.9766 94.293 67.9785C94.253 68.0069 94.218 68.0423 94.1865 68.0813C94.1799 68.0894 94.1737 68.0971 94.1678 68.1056C94.1406 68.1435 94.1163 68.1839 94.0992 68.2295L59.5457 160.189C59.5309 160.229 59.5222 160.27 59.5169 160.311C59.5154 160.323 59.5155 160.334 59.5148 160.346C59.5128 160.378 59.5134 160.409 59.5171 160.441C59.518 160.448 59.5166 160.455 59.5176 160.463L62.4575 179.352C62.488 179.549 62.6236 179.712 62.811 179.779L78.6117 185.402C78.6131 185.403 78.6147 185.403 78.6161 185.403C78.6667 185.421 78.7196 185.394 78.773 185.396C78.7797 185.396 78.7864 185.365 78.7933 185.365C78.7956 185.365 78.7977 185.365 78.8005 185.365C78.8081 185.365 78.8151 185.397 78.8225 185.397C78.8342 185.396 78.8456 185.389 78.8573 185.388C78.8888 185.384 78.9191 185.365 78.9488 185.365C78.9497 185.365 78.9504 185.365 78.9513 185.365L114.39 174.591L117.535 194.806C117.565 195.002 117.701 195.172 117.888 195.239L133.688 200.864C133.693 200.866 133.699 200.845 133.703 200.846C133.757 200.864 133.813 200.855 133.87 200.855C133.872 200.855 133.875 200.855 133.877 200.855C133.929 200.855 133.979 200.855 134.026 200.855C134.027 200.855 134.028 200.855 134.028 200.855L159.581 193.081C159.839 193.002 160 192.751 159.958 192.485L155.239 162.168L169.09 157.949C169.347 157.87 169.508 157.614 169.467 157.348L165.802 133.801ZM163.539 133.844L151.409 137.539L150.136 129.074L163.539 133.844ZM123.778 60.0992L137.864 65.1122L110.42 73.4726L96.3336 68.4597L123.778 60.0992ZM94.9263 69.1085L109.706 74.3681L109.478 74.9769L75.5333 165.314L67.8697 162.587L60.7538 160.054L94.9263 69.1085ZM63.4784 178.867L60.7279 161.195L70.4002 164.637L75.3676 166.405L78.1184 184.077L63.4784 178.867ZM118.555 194.332L115.437 174.295L128.64 170.273L133.195 199.542L118.555 194.332ZM154.474 161.271C154.216 161.35 154.055 161.606 154.097 161.872L158.816 192.192L134.309 199.657L129.614 169.49C129.598 169.383 129.548 169.286 129.477 169.208C129.47 169.201 129.466 169.193 129.459 169.187C129.448 169.176 129.434 169.171 129.422 169.161C129.404 169.147 129.387 169.123 129.368 169.123C129.368 169.123 129.444 169.123 129.444 169.123V169.109C129.444 169.084 129.324 169.069 129.28 169.056C129.267 169.052 129.235 169.051 129.221 169.047C129.189 169.04 129.148 169.036 129.115 169.034C129.106 169.034 129.093 169.031 129.084 169.031C129.079 169.031 129.071 169.034 129.065 169.034C129.018 169.035 128.97 169.041 128.924 169.054L114.667 173.349C114.594 173.371 114.531 173.409 114.476 173.456L79.2328 184.192L76.4103 166.06L104.341 91.7263L110.821 74.483L139.152 65.852L150.4 138.298L150.376 138.321C150.376 138.321 150.376 138.321 150.376 138.322V138.323C150.376 138.337 150.411 138.349 150.414 138.363C150.42 138.387 150.439 138.412 150.448 138.435C150.454 138.452 150.471 138.467 150.479 138.483C150.489 138.501 150.5 138.52 150.511 138.537C150.521 138.552 150.536 138.565 150.548 138.58C150.56 138.595 150.572 138.612 150.586 138.626C150.603 138.642 150.622 138.695 150.641 138.709C150.653 138.718 150.664 138.778 150.678 138.778C150.678 138.778 150.678 138.778 150.678 138.778C150.679 138.778 150.679 138.738 150.679 138.738C150.718 138.763 150.76 138.76 150.804 138.774C150.817 138.778 150.831 138.771 150.845 138.774C150.876 138.782 150.908 138.781 150.94 138.783C150.949 138.783 150.958 138.784 150.967 138.784C150.973 138.784 150.979 138.78 150.985 138.78C151.032 138.779 151.079 138.773 151.125 138.759L164.827 134.584L168.324 157.051L154.474 161.271Z" fill="#E85A5A"/>
<path d="M120.149 107.904C120.123 107.647 119.919 107.444 119.661 107.419C119.405 107.396 119.165 107.555 119.091 107.803C118.672 109.199 105.518 140.235 98.6204 156.45C98.5327 156.656 98.581 156.895 98.7417 157.051C98.8449 157.151 98.9809 157.204 99.119 157.204C99.1956 157.204 99.2731 157.187 99.3457 157.154C99.4841 157.09 113.217 150.758 115.79 149.793C118.904 148.665 122.195 147.572 125.572 146.543C125.83 146.464 125.991 146.208 125.949 145.942L120.664 111.989C120.464 110.7 120.29 109.326 120.149 107.904ZM115.415 148.777C113.242 149.592 103.671 153.973 100.166 155.584C103.049 148.803 115.919 118.508 119.316 110.182C119.402 110.857 119.495 111.517 119.594 112.155L124.806 145.645C121.569 146.639 118.414 147.691 115.415 148.777Z" fill="#E85A5A"/>
<path d="M256.81 127.348C256.809 127.275 256.809 127.204 256.808 127.131C256.798 126.529 256.781 125.918 256.755 125.294C256.754 125.28 256.754 125.266 256.754 125.252C256.699 123.976 256.61 122.653 256.487 121.285C256.47 121.103 256.451 120.917 256.433 120.732C256.387 120.251 256.338 119.766 256.283 119.273C256.257 119.033 256.229 118.791 256.2 118.549C256.146 118.094 256.089 117.635 256.029 117.172C255.995 116.915 255.962 116.659 255.927 116.4C255.86 115.912 255.787 115.418 255.713 114.921C255.678 114.688 255.646 114.458 255.609 114.223C255.495 113.492 255.375 112.753 255.246 112.001C253.122 99.6787 249.687 90.1675 245.045 83.7442C242.894 80.5948 240.484 78.3441 237.88 77.0545C237.6 76.9165 237.316 76.7889 237.03 76.6659C236.958 76.6345 236.884 76.604 236.811 76.5738C236.545 76.4635 236.277 76.3585 236.006 76.2611C235.984 76.253 235.961 76.244 235.939 76.2361C235.638 76.1293 235.334 76.0327 235.027 75.9421C234.973 75.9263 234.919 75.9112 234.865 75.8956C234.567 75.811 234.268 75.7324 233.966 75.663C233.957 75.6607 233.947 75.6581 233.937 75.6557C233.608 75.5808 233.278 75.5158 232.945 75.4592C232.914 75.454 232.883 75.4493 232.852 75.4444C232.707 75.4204 232.563 75.395 232.417 75.3745C232.264 75.3532 232.109 75.337 231.955 75.3193C231.907 75.3136 231.859 75.3073 231.811 75.302C231.497 75.2685 231.18 75.2415 230.859 75.2234C230.774 75.2185 230.688 75.2167 230.603 75.2128C230.368 75.2024 230.13 75.1959 229.892 75.1936C229.831 75.1931 229.772 75.1887 229.711 75.1887C229.608 75.1887 229.505 75.1896 229.387 75.1916C229.097 75.2036 228.81 75.2273 228.525 75.2564C228.452 75.264 228.379 75.2728 228.306 75.2814C228.21 75.2929 228.111 75.3015 228.015 75.3149C227.895 75.3318 227.776 75.3558 227.657 75.3759C227.576 75.3896 227.494 75.4022 227.414 75.4173C227.162 75.4645 226.913 75.5192 226.666 75.5809C226.634 75.589 226.6 75.5953 226.568 75.6037C226.287 75.6764 226.01 75.7588 225.736 75.8502C225.667 75.873 225.601 75.8998 225.533 75.9237C225.337 75.9928 225.142 76.0651 224.95 76.1439C224.846 76.1862 224.744 76.2317 224.642 76.2766C224.487 76.3449 224.333 76.4162 224.18 76.4909C224.07 76.5446 223.961 76.5993 223.852 76.6564C223.703 76.735 223.555 76.8185 223.408 76.9036C223.308 76.9613 223.207 77.0169 223.109 77.0776C222.872 77.2226 222.638 77.3746 222.408 77.5364C222.405 77.5382 222.402 77.5397 222.4 77.5417C222.214 77.6727 222.032 77.814 221.852 77.9606C221.813 77.992 221.774 78.0231 221.736 78.0553C221.566 78.1972 221.399 78.3452 221.234 78.5012C221.189 78.5434 221.146 78.5876 221.102 78.6308C220.978 78.7522 220.855 78.8777 220.734 79.007C220.68 79.0647 220.625 79.1207 220.572 79.1796C220.437 79.3289 220.306 79.4846 220.175 79.6438C220.142 79.6843 220.107 79.7212 220.074 79.7623C220.022 79.8272 219.971 79.8969 219.92 79.9635C219.901 79.9877 219.883 80.0118 219.864 80.0361C219.769 80.1611 219.674 80.2882 219.581 80.4191C219.566 80.4399 219.552 80.4614 219.537 80.4822C219.274 80.8561 219.019 81.2533 218.773 81.673C218.725 81.7546 218.676 81.835 218.629 81.918C218.578 82.0077 218.529 82.1 218.478 82.1919C218.419 82.2996 218.361 82.408 218.303 82.5185C218.258 82.6034 218.215 82.6896 218.171 82.7761C218.108 82.8996 218.046 83.025 217.985 83.1517C217.946 83.233 217.907 83.3141 217.868 83.3965C217.801 83.5401 217.735 83.6866 217.669 83.8343C217.638 83.9043 217.607 83.9729 217.576 84.0437C217.481 84.2641 217.387 84.4878 217.295 84.7167C217.184 84.9828 217.079 85.2574 216.976 85.5359C216.949 85.6092 216.922 85.6829 216.895 85.7569C216.803 86.0149 216.713 86.2769 216.627 86.5453C216.606 86.6132 216.585 86.6823 216.563 86.7509C216.492 86.9788 216.424 87.2105 216.358 87.4457C216.32 87.5788 216.284 87.7131 216.248 87.8482C216.206 88.0074 216.165 88.169 216.125 88.3313C216.094 88.4549 216.061 88.5749 216.031 88.7002C216.029 88.7108 216.029 88.7212 216.027 88.7315C215.577 90.6614 215.27 92.8063 215.107 95.1526C215.106 95.1674 215.104 95.1826 215.104 95.1973C215.066 95.7543 215.035 96.3218 215.013 96.9013C214.828 101.756 215.327 107.656 216.496 114.435C217.622 120.972 219.096 126.651 220.876 131.316C222.656 135.992 224.78 139.939 227.19 143.053C229.599 146.102 232.085 148.279 234.579 149.523C236.873 150.672 239.304 151.254 241.806 151.254C242.034 151.254 242.263 151.25 242.507 151.239C245.333 151.045 247.833 150.19 249.936 148.695C252.044 147.196 253.686 144.714 254.806 141.344C255.195 140.34 255.521 139.247 255.797 138.084L255.806 138.063C255.82 138.033 255.83 138.002 255.837 137.971C255.88 137.786 255.918 137.592 255.958 137.403C255.968 137.356 255.978 137.309 255.988 137.261C256.487 134.88 256.76 132.179 256.808 129.17C256.809 129.111 256.81 129.052 256.81 128.993C256.817 128.455 256.817 127.906 256.81 127.348ZM243.378 83.2805C243.641 83.6288 243.901 83.9908 244.158 84.3666C248.711 90.6669 252.083 100.026 254.178 112.185C254.306 112.927 254.424 113.655 254.536 114.375C254.572 114.604 254.603 114.828 254.637 115.054C254.711 115.545 254.783 116.033 254.848 116.513C254.884 116.771 254.917 117.026 254.951 117.28C255.009 117.73 255.065 118.175 255.117 118.616C255.147 118.863 255.176 119.11 255.203 119.355C255.254 119.82 255.301 120.278 255.346 120.733C255.365 120.935 255.386 121.138 255.405 121.338C255.461 121.962 255.512 122.578 255.553 123.183C255.555 123.203 255.557 123.224 255.558 123.244C255.604 123.904 255.64 124.551 255.668 125.188C255.671 125.25 255.672 125.311 255.675 125.374C255.698 125.933 255.715 126.482 255.724 127.023C255.726 127.13 255.727 127.235 255.728 127.342C255.735 127.849 255.736 128.35 255.731 128.841C255.729 128.93 255.728 129.018 255.727 129.106C255.719 129.648 255.704 130.18 255.68 130.701C255.679 130.724 255.679 130.747 255.678 130.77C255.573 133.045 255.325 135.122 254.936 137.001C254.928 137.039 254.92 137.076 254.912 137.114C254.867 137.328 254.814 137.533 254.765 137.742L252.886 142.052C253.7 136.868 254.305 130.843 252.832 122.295C250.707 109.972 247.272 100.461 242.63 94.0376C240.479 90.8879 238.069 88.6374 235.466 87.3478C233.747 86.5004 231.908 85.9351 230.002 85.6677C229.026 85.5308 228.011 85.4711 226.972 85.485C226.509 85.504 226.048 85.5454 225.601 85.6082C223.567 85.8937 221.684 86.6386 220.015 87.8143C220.012 87.8169 219.989 87.8325 219.985 87.8353C219.153 88.4212 218.371 89.1683 217.659 90.0556C217.304 90.4987 216.939 90.9848 216.595 91.5217C216.753 90.4954 216.947 89.5212 217.174 88.6005C217.212 88.4464 217.25 88.2924 217.291 88.141C217.326 88.0082 217.362 87.8769 217.398 87.7465C217.462 87.5207 217.527 87.2972 217.596 87.0778C217.619 87.0019 217.643 86.9263 217.667 86.8514C217.746 86.6066 217.828 86.3664 217.912 86.1304C217.939 86.0563 217.965 85.9829 217.992 85.9099C218.091 85.6434 218.192 85.3802 218.298 85.1261C218.385 84.9089 218.474 84.6971 218.564 84.488C218.593 84.4212 218.622 84.3562 218.652 84.2903C218.714 84.1496 218.777 84.01 218.841 83.8733C218.877 83.7966 218.913 83.7212 218.949 83.6459C219.008 83.5232 219.068 83.4025 219.128 83.2831C219.167 83.2049 219.207 83.1266 219.247 83.0498C219.305 82.9386 219.364 82.8302 219.423 82.722C219.466 82.6428 219.508 82.5624 219.552 82.485C219.606 82.389 219.662 82.2968 219.717 82.2034C219.828 82.0144 219.941 81.8299 220.056 81.651C220.083 81.6083 220.11 81.5644 220.138 81.5223C220.213 81.4072 220.29 81.2955 220.367 81.1846C220.394 81.1465 220.42 81.108 220.447 81.0704C220.527 80.9583 220.607 80.8485 220.688 80.741C220.712 80.7094 220.736 80.6784 220.76 80.6473C220.838 80.546 220.916 80.4466 220.996 80.3493C221.116 80.2022 221.238 80.0585 221.362 79.9205C221.414 79.8629 221.467 79.8083 221.519 79.7524C221.626 79.638 221.734 79.5266 221.844 79.419C221.885 79.3784 221.926 79.3362 221.968 79.2964C222.113 79.1592 222.26 79.0292 222.408 78.9046C222.452 78.8677 222.496 78.8321 222.54 78.7964C222.686 78.6777 222.833 78.5635 222.982 78.4576C222.996 78.4475 223.01 78.4363 223.024 78.4264C223.244 78.2715 223.467 78.1264 223.694 77.9879C223.76 77.9475 223.827 77.9108 223.894 77.8719C224.056 77.7772 224.219 77.6856 224.384 77.5993C224.463 77.5578 224.543 77.5183 224.623 77.4789C224.785 77.399 224.948 77.3234 225.113 77.2515C225.19 77.218 225.266 77.1841 225.343 77.1525C225.536 77.0731 225.731 77 225.928 76.9313C225.977 76.9143 226.025 76.8952 226.074 76.8787C226.326 76.7946 226.581 76.7185 226.841 76.6515C226.874 76.6429 226.907 76.6366 226.941 76.6283C227.16 76.5734 227.382 76.5248 227.607 76.4823C227.69 76.4667 227.774 76.4536 227.857 76.4397C228.041 76.4089 228.226 76.3814 228.413 76.3588C228.49 76.3495 228.567 76.34 228.644 76.3322C228.9 76.3062 229.157 76.2847 229.417 76.2739C229.562 76.2716 229.706 76.2743 229.85 76.2753C230.106 76.2772 230.361 76.2837 230.614 76.2961C230.667 76.2985 230.721 76.2998 230.774 76.3028C231.085 76.3204 231.394 76.3458 231.7 76.3789C231.736 76.3828 231.772 76.3877 231.807 76.3918C232.102 76.4257 232.395 76.4659 232.685 76.514C232.707 76.5175 232.728 76.5207 232.749 76.5244C233.369 76.6294 233.977 76.7688 234.576 76.9393C234.621 76.9521 234.665 76.9644 234.71 76.9777C235.002 77.0635 235.293 77.1561 235.579 77.2576C235.594 77.2627 235.608 77.2685 235.623 77.2738C235.884 77.3672 236.143 77.4689 236.4 77.5752C236.466 77.6027 236.532 77.6304 236.598 77.6585C236.868 77.7745 237.136 77.895 237.4 78.0253C238.009 78.3267 238.607 78.6859 239.194 79.1021C240.663 80.1425 242.061 81.5391 243.378 83.2805ZM249.308 147.813C247.37 149.19 245.057 149.979 242.447 150.158C239.886 150.263 237.402 149.726 235.063 148.555C232.713 147.382 230.35 145.305 228.044 142.386C225.702 139.361 223.631 135.507 221.889 130.93C220.133 126.331 218.678 120.719 217.563 114.252C216.407 107.546 215.913 101.722 216.096 96.9426C216.118 96.3688 216.148 95.8071 216.186 95.2564C216.595 93.3156 217.541 91.9347 218.505 90.7328C219.152 89.9247 219.86 89.2477 220.628 88.7073C222.166 87.6237 223.89 86.9418 225.752 86.6804C226.163 86.6228 226.589 86.5845 227.003 86.5672C227.973 86.5508 228.93 86.6109 229.852 86.7399C231.643 86.9915 233.371 87.5227 234.986 88.3183C237.42 89.524 239.691 91.6537 241.744 94.6599C246.297 100.96 249.668 110.32 251.764 122.479C253.446 132.234 252.412 138.387 251.413 144.338C251.314 144.926 251.217 145.51 251.122 146.093C250.566 146.772 249.961 147.348 249.308 147.813Z" fill="#E85A5A"/>
<path d="M286.642 110.357C284.732 99.2806 281.293 89.4337 276.418 81.0897C271.403 72.503 264.657 65.6782 256.364 60.8018C248.511 56.3047 239.156 54.0244 228.56 54.0244C227.864 54.0244 227.152 54.0342 226.429 54.0544C209.898 54.9716 197.867 61.2137 190.667 72.6127C188.137 76.7213 186.28 81.2958 185.093 86.3137C185.072 86.3537 185.054 86.3959 185.043 86.4419L182.629 96.7351C181.636 100.967 181.129 105.547 181.105 110.442C181.082 115.337 181.544 120.547 182.49 126.038C184.07 134.663 186.499 142.483 189.711 149.283C192.933 156.107 197.186 162.179 202.347 167.325C202.794 167.781 203.249 168.224 203.708 168.661C203.804 168.753 203.901 168.845 203.998 168.936C204.448 169.357 204.902 169.77 205.363 170.172C205.442 170.242 205.522 170.308 205.602 170.377C206.022 170.739 206.447 171.093 206.876 171.439C206.96 171.507 207.043 171.577 207.128 171.644C207.594 172.015 208.066 172.375 208.542 172.727C208.667 172.819 208.792 172.91 208.917 173.001C209.371 173.33 209.827 173.652 210.29 173.964C210.384 174.027 210.48 174.09 210.575 174.153C210.999 174.435 211.428 174.708 211.86 174.976C212.032 175.083 212.204 175.189 212.377 175.294C212.829 175.566 213.283 175.832 213.743 176.089C213.949 176.204 214.157 176.315 214.365 176.427C214.666 176.59 214.97 176.75 215.275 176.907C215.589 177.069 215.906 177.227 216.224 177.382C216.559 177.546 216.895 177.706 217.235 177.862C217.541 178.002 217.849 178.138 218.159 178.273C218.335 178.349 218.513 178.424 218.69 178.498C219.295 178.752 219.905 178.995 220.522 179.226C220.622 179.264 220.722 179.302 220.823 179.339C222.011 179.776 223.222 180.169 224.454 180.521C224.469 180.525 224.483 180.529 224.497 180.533C226.552 181.117 228.669 181.582 230.845 181.929C230.946 181.944 231.047 181.961 231.148 181.977C231.393 182.014 231.633 182.059 231.879 182.094C232.038 182.116 232.203 182.131 232.363 182.152C232.831 182.215 233.302 182.272 233.776 182.324C234.049 182.354 234.324 182.378 234.599 182.405C235.03 182.446 235.464 182.482 235.899 182.515C236.086 182.529 236.27 182.545 236.457 182.557C237.089 182.599 237.727 182.63 238.369 182.653C238.524 182.659 238.681 182.665 238.837 182.67C239.516 182.69 240.198 182.706 240.888 182.706C240.888 182.706 240.888 182.706 240.888 182.706C241.544 182.706 242.216 182.695 242.898 182.676C243.426 182.647 243.95 182.612 244.471 182.573C244.529 182.568 244.586 182.562 244.644 182.557C246.132 182.442 247.589 182.286 248.991 182.09C257.01 180.965 263.811 178.467 269.203 174.665C271.826 172.816 274.171 170.62 276.17 168.138C276.36 167.903 276.544 167.662 276.729 167.42C276.746 167.398 276.763 167.376 276.78 167.354C276.976 167.096 277.168 166.833 277.358 166.568C277.409 166.497 277.461 166.428 277.511 166.357C277.676 166.124 277.835 165.887 277.995 165.649C278.061 165.551 278.129 165.455 278.194 165.356C278.413 165.022 278.627 164.685 278.836 164.344C281.295 160.386 283.116 155.928 284.249 151.097L286.663 140.803C286.669 140.779 286.671 140.754 286.673 140.729C287.12 138.817 287.467 136.842 287.706 134.804C288.552 127.586 288.194 119.361 286.642 110.357ZM283.33 150.275L283.195 150.849C282.089 155.566 280.312 159.914 277.913 163.776C277.71 164.11 277.501 164.438 277.288 164.762C277.239 164.837 277.187 164.91 277.137 164.984C276.966 165.241 276.793 165.497 276.615 165.749C276.594 165.778 276.572 165.807 276.551 165.837C270.057 174.942 259.537 180.173 245.236 181.419C244.448 181.488 243.655 181.548 242.853 181.592C242.361 181.605 241.871 181.613 241.383 181.616C241.283 181.617 241.184 181.615 241.085 181.615C240.687 181.616 240.291 181.615 239.897 181.609C239.829 181.608 239.761 181.606 239.693 181.605C231.351 181.452 223.799 179.777 217.091 176.593C217.087 176.592 217.084 176.59 217.08 176.588C215.983 176.067 214.909 175.502 213.856 174.9C213.664 174.79 213.472 174.678 213.281 174.565C213.011 174.406 212.742 174.247 212.475 174.082C212.062 173.827 211.653 173.564 211.246 173.296C211.045 173.162 210.846 173.025 210.646 172.889C210.318 172.665 209.992 172.436 209.668 172.203C209.523 172.098 209.375 171.995 209.23 171.889C208.782 171.558 208.338 171.217 207.899 170.869C207.763 170.762 207.629 170.653 207.494 170.544C207.086 170.213 206.681 169.877 206.281 169.532C206.222 169.481 206.163 169.433 206.104 169.382C205.652 168.988 205.206 168.582 204.765 168.169C204.656 168.067 204.548 167.965 204.44 167.861C203.994 167.437 203.551 167.006 203.117 166.562C198.04 161.501 193.86 155.531 190.691 148.82C187.519 142.106 185.119 134.375 183.557 125.849C183.442 125.183 183.335 124.522 183.234 123.865C182.532 119.267 182.183 114.88 182.187 110.724C182.192 105.974 182.658 101.527 183.584 97.415C183.554 98.1244 183.583 98.8409 183.574 99.5644C183.571 99.7692 183.625 99.9791 183.625 100.185C183.625 100.26 183.625 100.336 183.625 100.412C183.625 101.133 183.584 101.861 183.604 102.595C183.612 102.887 183.595 103.18 183.607 103.474C183.619 103.787 183.619 104.101 183.635 104.417C183.66 104.909 183.682 105.403 183.716 105.901C183.733 106.149 183.748 106.398 183.767 106.648C183.807 107.174 183.85 107.704 183.901 108.236C183.921 108.451 183.941 108.665 183.963 108.881C184.031 109.551 184.103 110.223 184.187 110.903C184.192 110.945 184.198 110.988 184.204 111.03C184.287 111.695 184.379 112.366 184.477 113.04C184.504 113.222 184.531 113.405 184.559 113.589C184.666 114.303 184.78 115.02 184.904 115.745C185.201 117.362 185.527 118.951 185.882 120.51C187.423 127.266 189.516 133.465 192.125 138.989C195.147 145.388 199.073 151.124 203.804 156.056C204.12 156.384 204.439 156.71 204.761 157.031C205.208 157.488 205.664 157.931 206.122 158.368C206.219 158.46 206.315 158.552 206.412 158.642C206.862 159.064 207.317 159.477 207.778 159.88C207.856 159.948 207.935 160.014 208.013 160.081C208.436 160.445 208.863 160.802 209.295 161.15C209.377 161.216 209.458 161.283 209.54 161.349C210.008 161.721 210.481 162.083 210.96 162.437C211.082 162.526 211.204 162.615 211.327 162.704C211.786 163.037 212.248 163.363 212.716 163.679C212.802 163.737 212.889 163.793 212.975 163.851C213.406 164.137 213.842 164.415 214.281 164.687C214.449 164.791 214.616 164.895 214.785 164.997C215.24 165.271 215.699 165.54 216.163 165.799C216.363 165.911 216.565 166.018 216.766 166.127C217.076 166.295 217.389 166.459 217.703 166.62C217.987 166.767 218.273 166.911 218.56 167.052C218.924 167.23 219.289 167.403 219.658 167.572C219.957 167.709 220.258 167.843 220.561 167.974C220.751 168.057 220.942 168.137 221.134 168.217C221.718 168.462 222.309 168.697 222.905 168.921C223.02 168.964 223.136 169.008 223.252 169.051C224.427 169.483 225.626 169.872 226.845 170.221C226.876 170.229 226.906 170.238 226.937 170.246C228.971 170.824 231.066 171.284 233.22 171.628C233.342 171.648 233.464 171.668 233.586 171.687C233.822 171.723 234.055 171.766 234.293 171.8C234.448 171.821 234.607 171.836 234.762 171.857C235.24 171.92 235.719 171.979 236.202 172.032C236.465 172.06 236.731 172.084 236.996 172.109C237.439 172.152 237.885 172.19 238.332 172.223C238.511 172.236 238.688 172.252 238.867 172.263C239.502 172.305 240.143 172.336 240.788 172.36C240.942 172.366 241.095 172.345 241.249 172.35C241.929 172.37 242.612 172.36 243.302 172.36C243.302 172.36 243.303 172.36 243.303 172.36C243.304 172.36 243.304 172.36 243.304 172.36C243.96 172.36 244.631 172.375 245.312 172.356C246.002 172.318 246.682 172.281 247.356 172.225C248.743 172.112 250.1 171.973 251.405 171.79C259.424 170.665 266.225 168.17 271.618 164.369C274.241 162.52 276.585 160.325 278.585 157.842C278.777 157.604 278.964 157.36 279.152 157.116C279.165 157.098 279.179 157.081 279.192 157.063C279.396 156.795 279.595 156.523 279.791 156.248C279.835 156.188 279.879 156.129 279.922 156.069C280.097 155.821 280.267 155.569 280.436 155.317C280.492 155.233 280.55 155.15 280.606 155.066C280.826 154.731 281.041 154.392 281.25 154.05C281.453 153.723 281.652 153.391 281.847 153.057C281.904 152.958 281.959 152.858 282.016 152.758C282.152 152.521 282.287 152.282 282.418 152.041C282.482 151.923 282.544 151.805 282.607 151.686C282.73 151.457 282.851 151.226 282.969 150.993C283.029 150.876 283.088 150.758 283.146 150.64C283.207 150.518 283.27 150.397 283.33 150.275ZM286.63 134.678C286.378 136.832 286.004 138.916 285.515 140.926C285.455 141.171 285.391 141.414 285.328 141.656C285.211 142.106 285.089 142.551 284.959 142.993C284.893 143.22 284.828 143.447 284.758 143.673C284.677 143.935 284.593 144.195 284.508 144.454C284.426 144.704 284.341 144.953 284.254 145.2C284.177 145.423 284.101 145.647 284.02 145.867C283.862 146.3 283.696 146.727 283.525 147.152C283.453 147.331 283.377 147.509 283.303 147.687C283.168 148.008 283.03 148.328 282.888 148.645C282.821 148.795 282.755 148.947 282.685 149.096C282.478 149.545 282.264 149.991 282.042 150.43C281.995 150.522 281.946 150.612 281.898 150.704C281.706 151.076 281.509 151.445 281.306 151.81C281.238 151.931 281.171 152.054 281.101 152.174C280.85 152.616 280.594 153.053 280.327 153.483C280.123 153.817 279.914 154.147 279.7 154.472C279.658 154.535 279.615 154.596 279.573 154.659C279.393 154.928 279.212 155.196 279.026 155.459C279.011 155.481 278.995 155.502 278.98 155.523C272.592 164.493 262.306 169.711 248.348 171.066C248.339 171.067 248.331 171.068 248.322 171.068C248.178 171.083 248.03 171.093 247.884 171.106C247.022 171.184 246.149 171.25 245.267 171.299C244.775 171.312 244.286 171.32 243.799 171.323C243.691 171.324 243.583 171.322 243.475 171.322C243.09 171.323 242.705 171.322 242.323 171.317C242.234 171.315 242.145 171.312 242.056 171.311C241.642 171.303 241.23 171.293 240.82 171.278C240.788 171.276 240.756 171.275 240.724 171.274C239.769 171.236 238.824 171.18 237.891 171.102C235.501 170.902 233.182 170.57 230.934 170.104C230.485 170.01 230.038 169.912 229.594 169.808C226.071 168.984 222.728 167.824 219.571 166.331C219.526 166.31 219.481 166.289 219.436 166.267C218.371 165.76 217.329 165.212 216.307 164.628C216.089 164.503 215.871 164.377 215.655 164.249C215.404 164.1 215.152 163.952 214.904 163.799C214.481 163.537 214.062 163.269 213.647 162.994C213.456 162.867 213.267 162.737 213.077 162.608C212.737 162.375 212.398 162.138 212.063 161.896C211.926 161.797 211.787 161.7 211.65 161.6C211.198 161.266 210.751 160.923 210.308 160.572C210.176 160.467 210.045 160.361 209.913 160.255C209.501 159.921 209.093 159.583 208.69 159.234C208.633 159.186 208.576 159.139 208.519 159.09C208.066 158.695 207.62 158.288 207.178 157.874C207.07 157.774 206.962 157.672 206.855 157.569C206.409 157.144 205.966 156.714 205.531 156.269C201.724 152.473 198.42 148.166 195.67 143.419C194.753 141.836 193.897 140.205 193.105 138.527C189.933 131.812 187.533 124.082 185.971 115.555C185.864 114.938 185.766 114.325 185.672 113.715C185.642 113.522 185.615 113.33 185.586 113.138C185.524 112.717 185.464 112.298 185.408 111.88C185.378 111.661 185.349 111.443 185.321 111.225C185.27 110.825 185.222 110.428 185.177 110.032C185.152 109.821 185.127 109.609 185.104 109.399C185.05 108.908 185.002 108.421 184.958 107.936C184.93 107.64 184.906 107.347 184.882 107.053C184.855 106.713 184.827 106.374 184.803 106.038C184.781 105.716 184.762 105.397 184.744 105.078C184.73 104.859 184.718 104.639 184.707 104.421C184.689 104.053 184.672 103.687 184.659 103.323C184.654 103.202 184.651 103.082 184.647 102.962C184.278 91.2695 186.597 81.288 191.587 73.1853C198.585 62.105 210.328 56.0321 226.474 55.136C227.172 55.1168 227.873 55.1071 228.559 55.1071C238.965 55.1071 248.138 57.3392 255.82 61.7383C263.946 66.5165 270.562 73.2109 275.483 81.6356C280.291 89.8674 283.687 99.5924 285.574 110.541C287.108 119.443 287.464 127.563 286.63 134.678Z" fill="#E85A5A"/>
<path d="M407.991 160.55L407.345 138.186C407.342 138.094 407.316 138.005 407.269 137.926L402.015 129.052C402.011 129.046 402.006 129.042 402.002 129.036C401.975 128.995 401.943 128.956 401.905 128.922C401.902 128.919 401.9 128.916 401.897 128.913C401.897 128.913 401.896 128.913 401.896 128.912C401.857 128.88 401.813 128.856 401.767 128.836C401.754 128.83 401.741 128.825 401.727 128.82C401.68 128.803 401.631 128.791 401.582 128.788C401.575 128.788 401.569 128.789 401.562 128.789C401.531 128.788 401.499 128.788 401.467 128.793L390.698 130.429L388.874 70.9774C388.871 70.8859 388.845 70.7969 388.799 70.7181L383.545 61.8448C383.541 61.8388 383.535 61.835 383.531 61.8292C383.504 61.7874 383.473 61.7485 383.435 61.7151C383.432 61.7123 383.43 61.7088 383.426 61.706C383.426 61.7058 383.426 61.7053 383.425 61.7051C383.386 61.6721 383.341 61.6478 383.295 61.6275C383.283 61.6222 383.271 61.6059 383.259 61.6015C383.211 61.5842 383.16 61.557 383.109 61.557C383.106 61.557 383.103 61.557 383.1 61.557C383.066 61.557 383.032 61.5682 382.997 61.5735L349.41 66.6823C349.254 66.7059 349.116 66.7995 349.032 66.9333L297.496 149.239C297.439 149.33 297.501 149.436 297.504 149.543L298.115 167.555C298.115 167.556 298.115 167.557 298.115 167.559C298.115 167.572 298.029 167.584 298.03 167.597C298.033 167.626 297.992 167.654 297.999 167.681C298.003 167.696 297.987 167.71 297.992 167.724C298.001 167.749 298 167.773 298.013 167.797C298.016 167.803 298.011 167.809 298.015 167.815L303.266 176.688C303.365 176.854 303.542 176.954 303.731 176.954C303.757 176.954 303.783 176.952 303.809 176.948L356.103 169.23L356.649 188.126C356.649 188.128 356.649 188.129 356.649 188.13C356.65 188.143 356.653 188.155 356.654 188.168C356.657 188.197 356.661 188.225 356.668 188.253C356.673 188.267 356.679 188.28 356.684 188.295C356.693 188.32 356.703 188.345 356.716 188.368C356.719 188.374 356.72 188.381 356.724 188.386L361.978 197.26C362.076 197.426 362.255 197.526 362.444 197.526C362.471 197.526 362.498 197.524 362.526 197.52L391.928 193.052C391.935 193.051 391.94 193.048 391.947 193.047C391.961 193.044 391.975 193.039 391.989 193.035C392.037 193.022 392.082 193.003 392.124 192.978C392.133 192.972 392.143 192.968 392.152 192.962C392.168 192.95 392.182 192.938 392.197 192.925C392.217 192.909 392.236 192.891 392.254 192.872C392.259 192.865 392.265 192.859 392.271 192.852C392.347 192.76 392.395 192.645 392.395 192.517C392.395 192.481 392.392 192.446 392.386 192.413L391.552 163.617L407.534 161.189C407.537 161.189 407.539 161.188 407.542 161.187C407.802 161.147 408.001 160.925 408.001 160.654C408.001 160.618 407.998 160.583 407.991 160.55ZM387.795 71.1497L389.615 130.47L385.617 131.185L383.68 64.2003L387.795 71.1497ZM304.01 175.824L299.351 167.954L345.736 160.906L355.817 159.375L356.071 168.139L304.01 175.824ZM357.163 168.799C357.191 168.73 357.214 168.657 357.211 168.579L356.88 158.729C356.879 158.708 356.875 158.687 356.872 158.667C356.87 158.65 356.87 158.633 356.866 158.617C356.862 158.6 356.855 158.585 356.849 158.569C356.842 158.55 356.837 158.529 356.828 158.51C356.819 158.491 356.806 158.475 356.795 158.457C356.785 158.443 356.778 158.428 356.768 158.414C356.746 158.387 356.722 158.362 356.695 158.339C356.692 158.337 356.691 158.334 356.688 158.332C356.688 158.332 356.687 158.331 356.687 158.331C356.643 158.295 356.594 158.269 356.541 158.248C356.532 158.244 356.522 158.239 356.511 158.236C356.46 158.219 356.407 158.209 356.353 158.208C356.349 158.208 356.345 158.206 356.341 158.206C356.314 158.206 356.287 158.208 356.26 158.212L298.999 166.912L298.501 149.677L349.818 67.7217L382.555 62.7482L384.552 131.844C384.553 131.883 384.559 131.922 384.568 131.959C384.57 131.966 384.573 131.972 384.575 131.979C384.584 132.009 384.593 132.039 384.607 132.067C384.614 132.081 384.624 132.093 384.632 132.106C384.643 132.125 384.654 132.145 384.668 132.163C384.68 132.179 384.696 132.192 384.71 132.207C384.722 132.219 384.733 132.233 384.746 132.244C384.747 132.244 384.748 132.245 384.748 132.245C384.75 132.246 384.751 132.248 384.752 132.248C384.755 132.251 384.758 132.252 384.761 132.254C384.802 132.286 384.848 132.31 384.895 132.329C384.905 132.333 384.915 132.338 384.925 132.341C384.976 132.357 385.028 132.367 385.082 132.368C385.086 132.368 385.089 132.37 385.093 132.37C385.112 132.37 385.131 132.367 385.15 132.365C385.159 132.364 385.167 132.365 385.175 132.364L401.025 129.955L401.642 151.317L385.661 153.745C385.646 153.748 385.631 153.754 385.616 153.758C385.608 153.76 385.6 153.759 385.592 153.761C385.585 153.763 385.58 153.768 385.573 153.77C385.546 153.78 385.52 153.79 385.495 153.803C385.482 153.81 385.47 153.817 385.457 153.825C385.454 153.827 385.451 153.828 385.448 153.83C385.441 153.835 385.433 153.838 385.426 153.843C385.392 153.868 385.361 153.897 385.333 153.929C385.331 153.931 385.328 153.933 385.326 153.935C385.322 153.94 385.319 153.947 385.315 153.952C385.306 153.964 385.299 153.977 385.291 153.99C385.279 154.009 385.264 154.027 385.254 154.049C385.248 154.06 385.246 154.072 385.242 154.083C385.239 154.092 385.234 154.1 385.231 154.109C385.227 154.119 385.226 154.13 385.223 154.14C385.21 154.187 385.173 154.235 385.173 154.283C385.173 154.287 385.14 154.292 385.14 154.296V154.304C385.14 154.305 385.14 154.306 385.14 154.306L386.006 183.18L357.698 187.483L357.163 168.799ZM362.724 196.394L358.065 188.525L386.312 184.234L386.767 185.001L390.972 192.102L362.724 196.394ZM387.13 183.488L386.76 170.717L386.345 156.361L390.46 163.309L391.245 190.437L387.13 183.488ZM391.277 162.564L386.618 154.695L393.824 153.601L401.918 152.371L406.578 160.239L391.277 162.564ZM402.735 151.625L402.151 131.408L406.266 138.357L406.851 158.574L402.735 151.625Z" fill="#E85A5A"/>
<path d="M355.297 103.895C355.26 102.588 355.267 101.285 355.318 100.024C355.329 99.7709 355.163 99.5444 354.919 99.4785C354.675 99.4121 354.417 99.524 354.299 99.7476C353.77 100.745 352.154 103.557 350.856 105.816C350.036 107.244 349.328 108.477 349.02 109.031L328.099 141.496C328.072 141.537 328.054 141.581 328.04 141.625C328.036 141.636 328.034 141.647 328.031 141.659C328.021 141.701 328.014 141.743 328.013 141.785C328.013 141.789 328.013 141.792 328.013 141.796C328.013 141.842 328.021 141.888 328.033 141.932C328.036 141.943 328.04 141.953 328.043 141.963C328.058 142.006 328.077 142.048 328.102 142.087C328.103 142.088 328.103 142.089 328.104 142.09C328.104 142.09 328.104 142.09 328.104 142.091C328.127 142.125 328.155 142.156 328.186 142.185C328.195 142.193 328.204 142.199 328.213 142.207C328.229 142.22 328.243 142.233 328.261 142.245C328.267 142.248 328.273 142.25 328.28 142.253C328.308 142.27 328.339 142.283 328.37 142.294C328.385 142.3 328.398 142.351 328.413 142.355C328.458 142.368 328.504 142.419 328.551 142.419C328.552 142.419 328.415 142.419 328.415 142.419V142.361C328.415 142.361 328.549 142.343 328.581 142.337C334.901 141.192 351.52 138.401 355.652 137.774C355.921 137.733 356.136 137.494 356.129 137.221L355.401 107.78L355.297 103.895ZM329.683 141.037L349.931 109.617C349.933 109.614 349.934 109.611 349.936 109.608L349.949 109.587C350.271 109.01 350.977 107.78 351.796 106.356C352.614 104.932 353.497 103.394 354.19 102.171C354.189 102.753 354.197 103.338 354.214 103.925L354.326 107.807L355.052 136.768C350.546 137.469 336.446 139.834 329.683 141.037Z" fill="#E85A5A"/>
</svg>
