<svg width="447" height="92" viewBox="0 0 447 92" fill="none" xmlns="http://www.w3.org/2000/svg">
<path d="M23.5878 0H0V91.7323H23.5878V65.7845H60.9382V45.863H23.5878V0ZM411.353 0H339.278V91.7323H362.865V67.2295H411.353C432.19 67.2295 446.47 54.1231 446.47 33.6842C446.47 13.2452 432.19 0 411.353 0ZM404.803 47.4405H362.872V19.789H404.803C411.883 19.789 422.889 19.789 422.889 33.6779C422.889 47.5667 411.883 47.4405 404.803 47.4405ZM98.2823 25.9478H60.9319V45.8693H98.2823V91.7323H121.87V0H98.2823V25.9478ZM132.351 91.7323H229.321V72.9971H155.939V54.3881H229.321V37.3504H155.939V18.7415H229.321V0H132.351V91.7323ZM261.428 0H237.84V91.7323H332.191V71.9433H261.428V0Z" fill="#fff"/>
</svg>
